<svg xmlns="http://www.w3.org/2000/svg" viewBox="0 0 480 640" role="img" aria-labelledby="title desc">
  <title id="title">Bold Chai pump reservoir</title>
  <desc id="desc">Front-facing amber chai reservoir with a mint collar and retro-bright highlights.</desc>
  <defs>
    <linearGradient id="reservoir" x1="0" y1="0" x2="1" y2="1">
      <stop offset="0" stop-color="#f5d576"/>
      <stop offset="0.55" stop-color="#d8943e"/>
      <stop offset="1" stop-color="#a95f31"/>
    </linearGradient>
    <linearGradient id="lid" x1="0" y1="0" x2="0" y2="1">
      <stop stop-color="#fff4e0"/>
      <stop offset="1" stop-color="#d7a95e"/>
    </linearGradient>
    <linearGradient id="mint" x1="0" y1="0" x2="0" y2="1">
      <stop stop-color="#d6fff0"/>
      <stop offset="1" stop-color="#3ba296"/>
    </linearGradient>
    <linearGradient id="purple" x1="0" y1="0" x2="1" y2="1">
      <stop stop-color="#7c2e72"/>
      <stop offset="1" stop-color="#321738"/>
    </linearGradient>
  </defs>
  <g stroke="#321738" stroke-linejoin="round">
    <ellipse cx="240" cy="444" rx="160" ry="18" fill="#1f1530" opacity=".42" stroke="none"/>
    <rect x="112" y="82" width="256" height="346" rx="38" fill="url(#reservoir)" stroke-width="7"/>
    <rect x="126" y="101" width="228" height="302" rx="28" fill="#fff4e0" opacity=".09" stroke="#f8d980" stroke-width="3"/>
    <path d="M142 112v246c0 30 22 48 48 48h20V112z" fill="#fff4e0" opacity=".18" stroke="none"/>
    <rect x="92" y="390" width="296" height="48" rx="18" fill="url(#lid)" stroke-width="7"/>
    <rect x="166" y="366" width="148" height="54" rx="18" fill="url(#purple)" stroke-width="7"/>
    <rect x="187" y="331" width="106" height="62" rx="22" fill="url(#mint)" stroke-width="7"/>
    <rect x="207" y="312" width="66" height="54" rx="18" fill="#fff4e0" opacity=".22" stroke-width="5"/>
    <path d="M144 164h86" fill="none" stroke="#fff4e0" stroke-width="8" stroke-linecap="round" opacity=".45"/>
    <path d="M144 184h48" fill="none" stroke="#fff4e0" stroke-width="5" stroke-linecap="round" opacity=".3"/>
    <path d="M300 154c18 15 29 36 31 60" fill="none" stroke="#9fe8c5" stroke-width="6" stroke-linecap="round" opacity=".72"/>
    <path d="M318 228l9 10 14-2-9 10 3 14-11-8-13 5 6-13z" fill="#f28bab" stroke-width="3"/>
    <path d="M162 294l7 8 11-2-8 8 2 11-9-6-10 4 5-10z" fill="#d6fff0" stroke-width="3"/>
    <path d="M275 285c14-20 36-22 49-8-12-2-22 2-28 13-6 10-12 14-21 12z" fill="#f28bab" stroke-width="3"/>
    <path d="M287 283c8-9 18-12 28-8" fill="none" stroke="#fff4e0" stroke-width="3" stroke-linecap="round"/>
    <circle cx="241" cy="143" r="10" fill="#f5d576" stroke-width="4"/>
  </g>
</svg>
