<svg xmlns="http://www.w3.org/2000/svg" viewBox="0 0 480 640" role="img" aria-labelledby="title desc">
  <title id="title">Bold Chai spout</title>
  <desc id="desc">Front-facing oversized metal-toned chai dispensing spout.</desc>
  <defs>
    <linearGradient id="spoutMetal" x1="0" y1="0" x2="1" y2="0"><stop stop-color="#8f5d4b"/><stop offset=".42" stop-color="#fff4e0"/><stop offset=".67" stop-color="#cda76a"/><stop offset="1" stop-color="#70415a"/></linearGradient>
    <linearGradient id="spoutNozzle" x1="0" y1="0" x2="0" y2="1"><stop stop-color="#f5d576"/><stop offset="1" stop-color="#a95f31"/></linearGradient>
  </defs>
  <g fill="none" stroke="#321738" stroke-linejoin="round" stroke-linecap="round">
    <path d="M290 316h105c28 0 48 20 48 47v16" stroke="url(#spoutMetal)" stroke-width="42"/>
    <path d="M290 316h105c28 0 48 20 48 47v16" stroke="#fff4e0" stroke-width="8" opacity=".36"/>
    <path d="M443 365v72" stroke="url(#spoutMetal)" stroke-width="46"/>
    <path d="M422 430h42v21c0 11-9 20-21 20s-21-9-21-20z" fill="url(#spoutNozzle)" stroke-width="7"/>
    <path d="M430 444h26" stroke="#fff4e0" stroke-width="5" opacity=".5"/>
    <path d="M428 492c0 0-3 12-3 16M444 493c0 0 0 15 0 19M460 492c0 0 3 12 3 16" stroke="#9fe8c5" stroke-width="5" opacity=".6"/>
  </g>
</svg>
